<?xml version="1.0" encoding="UTF-8" standalone="no"?>
<!DOCTYPE svg PUBLIC "-//W3C//DTD SVG 1.1//EN" "http://www.w3.org/Graphics/SVG/1.1/DTD/svg11.dtd">
<svg width="100%" height="100%" viewBox="0 0 2000 2000" version="1.1" xmlns="http://www.w3.org/2000/svg" xmlns:xlink="http://www.w3.org/1999/xlink" xml:space="preserve" xmlns:serif="http://www.serif.com/" style="fill-rule:evenodd;clip-rule:evenodd;stroke-linejoin:round;stroke-miterlimit:2;">
    <g id="path13" transform="matrix(40.0145,0,0,40.0145,93.6617,159.695)">
        <path d="M37.1,41.9L2,41.9C1.8,41.9 1.6,41.8 1.4,41.7C0.9,41.3 0.8,40.7 1,40.2L18.6,9.8C18.9,9.3 19.6,9.1 20.1,9.4C20.6,9.7 20.8,10.4 20.5,10.9L5,38C4.6,38.8 5.1,39.7 6,39.7L37.2,39.7C37.7,39.7 38.1,40 38.3,40.5C38.4,41.2 37.8,41.9 37.1,41.9ZM9.2,37.8C8.5,37.8 7.9,37.1 8.1,36.3C8.2,35.8 8.7,35.5 9.2,35.5L40.4,35.5C41.3,35.5 41.8,34.6 41.4,33.8L25.8,6.8C25.5,6.3 25.7,5.6 26.2,5.3C26.7,5 27.4,5.2 27.7,5.7L45.2,36.1C45.3,36.3 45.4,36.5 45.3,36.7C45.2,37.3 44.7,37.8 44.2,37.8L9.2,37.8ZM1.1,32.8C0.9,32.8 0.7,32.8 0.5,32.6C0,32.3 -0.2,31.6 0.1,31.1L17.7,0.7C17.9,0.4 18.3,0.1 18.7,0.1C19.1,0.1 19.5,0.3 19.7,0.7L37.2,31.1C37.5,31.6 37.3,32.3 36.8,32.6C36.3,32.9 35.6,32.7 35.3,32.2L19.7,5.2C19.3,4.4 18.2,4.4 17.7,5.2L2.1,32.2C1.9,32.6 1.5,32.8 1.1,32.8ZM30.1,33.4L13.3,33.4C13.1,33.4 12.9,33.3 12.7,33.2C12.2,32.8 12.1,32.2 12.3,31.7L20.7,17.2C20.9,16.9 21.3,16.6 21.7,16.6C22.1,16.6 22.5,16.8 22.7,17.2L31.1,31.7C31.2,31.9 31.3,32.1 31.2,32.3C31.2,33 30.6,33.4 30.1,33.4ZM17.2,31.2L26.2,31.2C27.1,31.2 27.6,30.3 27.2,29.5L22.7,21.7C22.3,20.9 21.2,20.9 20.7,21.7L16.2,29.5C15.8,30.2 16.3,31.2 17.2,31.2Z" style="fill:rgb(17,59,96);"/>
    </g>
</svg>
